<svg xmlns="http://www.w3.org/2000/svg" viewBox="-213 221 25.063 10.115">
  <defs>
    <style>
      .cls-1 {
        fill: #fff;
      }
    </style>
  </defs>
  <g id="Group_12019" data-name="Group 12019" transform="translate(-213 221)">
    <path id="Path_4747" data-name="Path 4747" class="cls-1" d="M11.508,5.815C9.87,5.242,8.8,4.341,8.8,2.949,8.8,1.27,10.2,0,12.491,0a6.228,6.228,0,0,1,2.5.491l-.491,1.8a4.588,4.588,0,0,0-2.048-.45c-.942,0-1.433.45-1.433.942,0,.614.532.9,1.8,1.392,1.72.655,2.539,1.556,2.539,2.908,0,1.638-1.27,3.031-3.931,3.031A6.234,6.234,0,0,1,8.641,9.5l.45-1.843a6.016,6.016,0,0,0,2.457.614c1.024,0,1.556-.41,1.556-1.065.082-.614-.41-.942-1.6-1.392ZM0,5.2A4.973,4.973,0,0,1,5.324,0,5.792,5.792,0,0,1,7.74.45L7.29,2.211a4.437,4.437,0,0,0-1.843-.369A2.937,2.937,0,0,0,2.334,5.078,2.917,2.917,0,0,0,5.488,8.273a5.933,5.933,0,0,0,1.843-.328l.328,1.72a6.273,6.273,0,0,1-2.5.41C1.761,10.074,0,7.986,0,5.2ZM21.828,9.952h-2.58L16.095.164h2.416L19.7,4.3a33.222,33.222,0,0,1,.86,3.481H20.6a30.218,30.218,0,0,1,.9-3.44L22.729.164h2.334Zm0,0"/>
  </g>
</svg>
