<svg xmlns="http://www.w3.org/2000/svg" viewBox="-387 214 25.19 24.663">
  <defs>
    <style>
      .cls-1 {
        fill: #fff;
      }
    </style>
  </defs>
  <path id="Path_4746" data-name="Path 4746" class="cls-1" d="M24.961,15.181c-.507-.5-1.623-.756-3.32-.784a28.2,28.2,0,0,0-3.994.3,9.873,9.873,0,0,1-1.854-1.282,13.531,13.531,0,0,1-3.339-5.183c.046-.194.092-.35.129-.526a33.408,33.408,0,0,0,.59-6.078,1.764,1.764,0,0,0-.1-.433L13,1.015A1.452,1.452,0,0,0,11.689.009L11.292,0h-.009A1.475,1.475,0,0,0,9.77.95c-.489,1.789.018,4.464.922,7.923l-.231.563C9.817,11.022,9,12.608,8.285,14.019l-.092.184c-.756,1.476-1.439,2.73-2.057,3.791l-.636.341c-.046.028-1.144.609-1.4.766C1.912,20.411.464,21.887.224,23.067a.981.981,0,0,0,.369,1.079l.618.314a1.816,1.816,0,0,0,.839.2c1.559,0,3.366-1.937,5.857-6.281a58.38,58.38,0,0,1,9.02-2.14A15.594,15.594,0,0,0,23.5,18.327a3.112,3.112,0,0,0,.775-.083,1.276,1.276,0,0,0,.766-.526,2.761,2.761,0,0,0,.3-1.882,1.458,1.458,0,0,0-.387-.655ZM1.7,23.473A10.865,10.865,0,0,1,4.771,19.8c.1-.083.36-.323.6-.553C3.628,22.016,2.466,23.123,1.7,23.473ZM11.541.8c.5,0,.784,1.264.812,2.444a4.921,4.921,0,0,1-.6,2.629,12.78,12.78,0,0,1-.424-3.283c.009,0-.018-1.789.212-1.789ZM8.608,16.952c.35-.627.71-1.282,1.079-1.983a37.457,37.457,0,0,0,1.9-4.141,13.8,13.8,0,0,0,3.136,3.892c.157.129.314.258.489.4a40.2,40.2,0,0,0-6.6,1.835Zm15.864-.138a2.342,2.342,0,0,1-.876.148,10.149,10.149,0,0,1-3.616-1.1c.609-.046,1.162-.065,1.66-.065a6.58,6.58,0,0,1,2.075.221c.9.231.913.7.756.793Z" transform="translate(-387.196 214)"/>
</svg>
