<svg xmlns="http://www.w3.org/2000/svg" viewBox="-675 922 14.675 19.687">
  <defs>
    <style>
      .cls-1 {
        fill: #fff;
      }
    </style>
  </defs>
  <g id="Group_12021" data-name="Group 12021" transform="translate(-675 922)">
    <path id="Path_4750" data-name="Path 4750" class="cls-1" d="M18.263,93.446a.993.993,0,0,0,.988.952H28.5a.985.985,0,0,0,.988-.952L30.149,79.5H17.6ZM25.968,82.97a.4.4,0,0,1,.4-.4h.645a.4.4,0,0,1,.4.4v7.964a.4.4,0,0,1-.4.4h-.645a.4.4,0,0,1-.4-.4Zm-2.813,0a.4.4,0,0,1,.4-.4H24.2a.4.4,0,0,1,.4.4v7.964a.4.4,0,0,1-.4.4h-.645a.4.4,0,0,1-.4-.4Zm-2.819,0a.4.4,0,0,1,.4-.4h.645a.4.4,0,0,1,.4.4v7.964a.4.4,0,0,1-.4.4h-.645a.4.4,0,0,1-.4-.4Zm0,0" transform="translate(-16.54 -74.711)"/>
    <path id="Path_4751" data-name="Path 4751" class="cls-1" d="M14.049,1.012H9.783V.2a.2.2,0,0,0-.2-.2H5.1a.2.2,0,0,0-.2.2v.807H.62A.625.625,0,0,0,0,1.639V3.59H14.675V1.639a.63.63,0,0,0-.627-.627Zm0,0"/>
  </g>
</svg>
