<svg xmlns="http://www.w3.org/2000/svg" viewBox="-1340 436 30.426 25">
  <defs>
    <style>
      .cls-1 {
        fill: #fff;
      }
    </style>
  </defs>
  <path id="Path_4742" data-name="Path 4742" class="cls-1" d="M18.077,0a6.462,6.462,0,0,0-6.659,6.244,6.044,6.044,0,0,0,2.014,4.469h-3.5a5.154,5.154,0,0,0,1.485-3.575,5.544,5.544,0,0,0-5.7-5.363A5.556,5.556,0,0,0,0,7.137a5.221,5.221,0,0,0,1.976,4.028A3.557,3.557,0,0,0,0,14.288v7.137A3.691,3.691,0,0,0,3.8,25H19.021a3.691,3.691,0,0,0,3.8-3.575L28.525,25a1.845,1.845,0,0,0,1.9-1.788V12.5a1.853,1.853,0,0,0-1.9-1.788l-5.7,3.575a3.474,3.474,0,0,0-1.334-2.694,6.143,6.143,0,0,0,3.235-5.337A6.453,6.453,0,0,0,18.077,0M5.7,10.712A3.691,3.691,0,0,1,1.9,7.137,3.691,3.691,0,0,1,5.7,3.562,3.691,3.691,0,0,1,9.5,7.137,3.683,3.683,0,0,1,5.7,10.712Zm12.374.013a4.63,4.63,0,0,1-4.771-4.469,4.63,4.63,0,0,1,4.771-4.469,4.63,4.63,0,0,1,4.771,4.469A4.638,4.638,0,0,1,18.077,10.725Z" transform="translate(-1340 436)"/>
</svg>
