<svg xmlns="http://www.w3.org/2000/svg" viewBox="-1335 1197 19.648 25">
  <defs>
    <style>
      .cls-1 {
        fill: #fff;
      }
    </style>
  </defs>
  <g id="Group_12008" data-name="Group 12008" transform="translate(-1335 1197)">
    <path id="Path_4743" data-name="Path 4743" class="cls-1" d="M18.255,10.105h-.5V7.82A7.858,7.858,0,0,0,10.056,0H9.592a7.858,7.858,0,0,0-7.7,7.82v2.285h-.5A1.583,1.583,0,0,0,0,11.828V23.265A1.6,1.6,0,0,0,1.393,25H18.255a1.6,1.6,0,0,0,1.393-1.735V11.828A1.583,1.583,0,0,0,18.255,10.105Zm-6.843,7.441V21a.754.754,0,0,1-.745.733H8.993A.746.746,0,0,1,8.248,21V17.546a2.048,2.048,0,0,1-.623-1.478,2.071,2.071,0,0,1,1.967-2.077h.464a2.087,2.087,0,0,1,1.967,2.077A2.038,2.038,0,0,1,11.413,17.546Zm3.067-7.441h-9.3V7.82a4.656,4.656,0,0,1,9.311,0v2.285Z"/>
  </g>
</svg>
